<?xml version="1.0" encoding="UTF-8"?>
<svg id="_レイヤー_1" data-name="レイヤー 1" xmlns="http://www.w3.org/2000/svg" xmlns:xlink="http://www.w3.org/1999/xlink" viewBox="0 0 133.58 108.19">
  <defs>
    <style>
      .cls-1 {
        fill: #f1ab3f;
      }

      .cls-2 {
        fill: #fff;
      }

      .cls-3 {
        fill: #3476bc;
      }

      .cls-4 {
        fill: url(#_名称未設定グラデーション_4);
      }

      .cls-5 {
        fill: url(#_名称未設定グラデーション_6);
      }

      .cls-6 {
        fill: url(#_名称未設定グラデーション_2);
      }
    </style>
    <linearGradient id="_名称未設定グラデーション_6" data-name="名称未設定グラデーション 6" x1="68.21" y1="114.18" x2="65.06" y2="-19.37" gradientUnits="userSpaceOnUse">
      <stop offset=".02" stop-color="#001829"/>
      <stop offset="1" stop-color="#32268a"/>
    </linearGradient>
    <linearGradient id="_名称未設定グラデーション_4" data-name="名称未設定グラデーション 4" x1="31.36" y1="46.73" x2="94.91" y2="8.11" gradientUnits="userSpaceOnUse">
      <stop offset=".02" stop-color="#2656a6"/>
      <stop offset=".31" stop-color="#cdc018"/>
      <stop offset=".32" stop-color="#c5bb1e"/>
      <stop offset=".38" stop-color="#9ba042"/>
      <stop offset=".44" stop-color="#778960"/>
      <stop offset=".5" stop-color="#59767a"/>
      <stop offset=".57" stop-color="#42688d"/>
      <stop offset=".64" stop-color="#325e9b"/>
      <stop offset=".72" stop-color="#2957a3"/>
      <stop offset=".83" stop-color="#2656a6"/>
    </linearGradient>
    <linearGradient id="_名称未設定グラデーション_2" data-name="名称未設定グラデーション 2" x1="68.28" y1="64.19" x2="106.27" y2="64.19" gradientTransform="translate(12.31 12.31) rotate(3.27) scale(1.06) skewX(6.5)" gradientUnits="userSpaceOnUse">
      <stop offset="0" stop-color="#2e50a1"/>
      <stop offset=".52" stop-color="#f1aa25"/>
      <stop offset="1" stop-color="#f1aa25"/>
    </linearGradient>
  </defs>
  <rect class="cls-5" width="133.58" height="108.19" rx="13.25" ry="13.25"/>
  <g>
    <g>
      <path class="cls-4" d="m21.13,25.03h-3.82c-.72,0-1.3.58-1.3,1.3v1.27c0,.72-.58,1.3-1.3,1.3h-4.29c-.72,0-1.3-.58-1.3-1.3V11.28c0-.72.58-1.3,1.3-1.3h10.76c3.82,0,6.42,1.85,6.42,6.88v1.51c0,3.96-1.95,6.65-6.47,6.65Zm-.46-7.58c0-1.14-.37-1.27-1.39-1.27h-1.97c-.72,0-1.3.58-1.3,1.3h0c0,.72.58,1.3,1.3,1.3h1.97c1,0,1.39-.28,1.39-1.11v-.21Z"/>
      <path class="cls-4" d="m37.62,28.9c-5.52,0-7.12-2.92-7.12-7.19v-3.59c0-4.8,1.02-8.14,7.19-8.14h8.67c1.23,0,2.23,1,2.23,2.23v1.53c0,1.23-1,2.23-2.23,2.23h-7.44c-.88,0-1.32.3-1.46,1.27h8.07c1.23,0,2.23,1,2.23,2.23h0c0,1.23-1,2.23-2.23,2.23h-8.09c0,.86.19,1.27,1.48,1.27h7.44c1.23,0,2.23,1,2.23,2.23v1.48c0,1.23-1,2.23-2.23,2.23h-8.74Z"/>
      <path class="cls-4" d="m63.7,18.22v8.61c0,1.14-.93,2.07-2.07,2.07h-2.93c-1.14,0-2.07-.93-2.07-2.07v-8.61c0-1.14-.93-2.07-2.07-2.07h-1.77c-1.14,0-2.07-.93-2.07-2.07v-2.03c0-1.14.93-2.07,2.07-2.07h14.43c1.14,0,2.07.93,2.07,2.07v2.03c0,1.14-.93,2.07-2.07,2.07h-1.45c-1.14,0-2.07.93-2.07,2.07Z"/>
      <path class="cls-4" d="m82.59,27.6v-.25c0-.72-.58-1.3-1.3-1.3h-1.99c-.72,0-1.3.58-1.3,1.3v.25c0,.72-.58,1.3-1.3,1.3h-3.31c-1.1,0-2-.89-2-2v-9.55c0-5.75,1.32-7.72,7.44-7.72h2.57c6.12,0,7.74,1.97,7.74,7.72v9.55c0,1.1-.89,2-2,2h-3.26c-.72,0-1.3-.58-1.3-1.3Zm0-10.25c0-1.21-.19-1.55-1.25-1.55h-2.11c-1.04,0-1.23.35-1.23,1.55v.07c0,1.43,1.16,2.59,2.59,2.59h0c1.1,0,2-.89,2-2v-.67Z"/>
      <path class="cls-4" d="m59.73,50.42h-3.5c-.89,0-1.62.73-1.62,1.62v.63c0,.89-.73,1.62-1.62,1.62h-3.65c-.89,0-1.62-.73-1.62-1.62v-15.68c0-.89.73-1.62,1.62-1.62h10.43c3.82,0,6.42,1.85,6.42,6.88v1.51c0,3.96-1.95,6.65-6.47,6.65Zm-.46-7.58c0-1.14-.37-1.27-1.39-1.27h-1.97c-.72,0-1.3.58-1.3,1.3h0c0,.72.58,1.3,1.3,1.3h1.97c1,0,1.39-.28,1.39-1.11v-.21Z"/>
      <path class="cls-4" d="m76.22,54.29c-5.52,0-7.12-2.92-7.12-7.19v-3.59c0-4.8,1.02-8.14,7.19-8.14h8.67c1.23,0,2.23,1,2.23,2.23v1.53c0,1.23-1,2.23-2.23,2.23h-7.44c-.88,0-1.32.3-1.46,1.27h8.07c1.23,0,2.23,1,2.23,2.23h0c0,1.23-1,2.23-2.23,2.23h-8.09c0,.86.19,1.27,1.48,1.27h7.44c1.23,0,2.23,1,2.23,2.23v1.48c0,1.23-1,2.23-2.23,2.23h-8.74Z"/>
      <path class="cls-4" d="m102.3,43.79v8.25c0,1.24-1.01,2.25-2.25,2.25h-2.57c-1.24,0-2.25-1.01-2.25-2.25v-8.25c0-1.24-1.01-2.25-2.25-2.25h-1.42c-1.24,0-2.25-1.01-2.25-2.25v-1.67c0-1.24,1.01-2.25,2.25-2.25h14.07c1.24,0,2.25,1.01,2.25,2.25v1.67c0,1.24-1.01,2.25-2.25,2.25h-1.09c-1.24,0-2.25,1.01-2.25,2.25Z"/>
    </g>
    <g>
      <path class="cls-1" d="m21.13,25.03h-3.82c-.72,0-1.3.58-1.3,1.3v1.27c0,.72-.58,1.3-1.3,1.3h-4.29c-.72,0-1.3-.58-1.3-1.3V11.28c0-.72.58-1.3,1.3-1.3h10.76c3.82,0,6.42,1.85,6.42,6.88v1.51c0,3.96-1.95,6.65-6.47,6.65Zm-.46-7.58c0-1.14-.37-1.27-1.39-1.27h-1.97c-.72,0-1.3.58-1.3,1.3h0c0,.72.58,1.3,1.3,1.3h1.97c1,0,1.39-.28,1.39-1.11v-.21Z"/>
      <path class="cls-3" d="m37.62,28.9c-5.52,0-7.12-2.92-7.12-7.19v-3.59c0-4.8,1.02-8.14,7.19-8.14h8.67c1.23,0,2.23,1,2.23,2.23v1.53c0,1.23-1,2.23-2.23,2.23h-7.44c-.88,0-1.32.3-1.46,1.27h8.07c1.23,0,2.23,1,2.23,2.23h0c0,1.23-1,2.23-2.23,2.23h-8.09c0,.86.19,1.27,1.48,1.27h7.44c1.23,0,2.23,1,2.23,2.23v1.48c0,1.23-1,2.23-2.23,2.23h-8.74Z"/>
      <path class="cls-1" d="m63.7,18.22v8.61c0,1.14-.93,2.07-2.07,2.07h-2.93c-1.14,0-2.07-.93-2.07-2.07v-8.61c0-1.14-.93-2.07-2.07-2.07h-1.77c-1.14,0-2.07-.93-2.07-2.07v-2.03c0-1.14.93-2.07,2.07-2.07h14.43c1.14,0,2.07.93,2.07,2.07v2.03c0,1.14-.93,2.07-2.07,2.07h-1.45c-1.14,0-2.07.93-2.07,2.07Z"/>
      <path class="cls-1" d="m82.59,27.6v-.25c0-.72-.58-1.3-1.3-1.3h-1.99c-.72,0-1.3.58-1.3,1.3v.25c0,.72-.58,1.3-1.3,1.3h-3.31c-1.1,0-2-.89-2-2v-9.55c0-5.75,1.32-7.72,7.44-7.72h2.57c6.12,0,7.74,1.97,7.74,7.72v9.55c0,1.1-.89,2-2,2h-3.26c-.72,0-1.3-.58-1.3-1.3Zm0-10.25c0-1.21-.19-1.55-1.25-1.55h-2.11c-1.04,0-1.23.35-1.23,1.55v.07c0,1.43,1.16,2.59,2.59,2.59h0c1.1,0,2-.89,2-2v-.67Z"/>
      <path class="cls-1" d="m59.73,50.42h-3.5c-.89,0-1.62.73-1.62,1.62v.63c0,.89-.73,1.62-1.62,1.62h-3.65c-.89,0-1.62-.73-1.62-1.62v-15.68c0-.89.73-1.62,1.62-1.62h10.43c3.82,0,6.42,1.85,6.42,6.88v1.51c0,3.96-1.95,6.65-6.47,6.65Zm-.46-7.58c0-1.14-.37-1.27-1.39-1.27h-1.97c-.72,0-1.3.58-1.3,1.3h0c0,.72.58,1.3,1.3,1.3h1.97c1,0,1.39-.28,1.39-1.11v-.21Z"/>
      <path class="cls-3" d="m76.22,54.29c-5.52,0-7.12-2.92-7.12-7.19v-3.59c0-4.8,1.02-8.14,7.19-8.14h8.67c1.23,0,2.23,1,2.23,2.23v1.53c0,1.23-1,2.23-2.23,2.23h-7.44c-.88,0-1.32.3-1.46,1.27h8.07c1.23,0,2.23,1,2.23,2.23h0c0,1.23-1,2.23-2.23,2.23h-8.09c0,.86.19,1.27,1.48,1.27h7.44c1.23,0,2.23,1,2.23,2.23v1.48c0,1.23-1,2.23-2.23,2.23h-8.74Z"/>
      <path class="cls-1" d="m102.3,43.79v8.25c0,1.24-1.01,2.25-2.25,2.25h-2.57c-1.24,0-2.25-1.01-2.25-2.25v-8.25c0-1.24-1.01-2.25-2.25-2.25h-1.42c-1.24,0-2.25-1.01-2.25-2.25v-1.67c0-1.24,1.01-2.25,2.25-2.25h14.07c1.24,0,2.25,1.01,2.25,2.25v1.67c0,1.24-1.01,2.25-2.25,2.25h-1.09c-1.24,0-2.25,1.01-2.25,2.25Z"/>
    </g>
  </g>
  <path class="cls-6" d="m88.28,75.32l6.45,23.97c1.65,6.14,9.32,8.19,13.82,3.69l17.52-17.52c4.49-4.49,2.44-12.16-3.69-13.82l-23.97-6.45c-6.15-1.66-11.78,3.97-10.12,10.12Z"/>
  <path class="cls-2" d="m115.38,73.34c-.83,3.1-4,4.94-7.07,4.11s-4.88-4.01-4.05-7.11,3.49-3.1,6.56-2.27,5.39,2.17,4.56,5.27Z"/>
  <circle class="cls-2" cx="97.89" cy="93.03" r="4.15"/>
  <circle class="cls-2" cx="114.88" cy="98.42" r="5.76"/>
  <path class="cls-1" d="m121.52,52.49v-.25c0-.72-.58-1.3-1.3-1.3h-1.99c-.72,0-1.3.58-1.3,1.3v.25c0,.72-.58,1.3-1.3,1.3h-3.31c-1.1,0-2-.89-2-2v-9.55c0-5.75,1.32-7.72,7.44-7.72h2.57c6.12,0,7.74,1.97,7.74,7.72v9.55c0,1.1-.89,2-2,2h-3.26c-.72,0-1.3-.58-1.3-1.3Zm0-10.25c0-1.21-.19-1.55-1.25-1.55h-2.11c-1.04,0-1.23.35-1.23,1.55v.07c0,1.43,1.16,2.59,2.59,2.59h0c1.1,0,2-.89,2-2v-.67Z"/>
</svg>